<?xml version="1.0" standalone="no"?>
<!DOCTYPE svg PUBLIC "-//W3C//DTD SVG 20010904//EN"
 "http://www.w3.org/TR/2001/REC-SVG-20010904/DTD/svg10.dtd">
<svg version="1.0" xmlns="http://www.w3.org/2000/svg"
 width="566.000000pt" height="566.000000pt" viewBox="0 0 566.000000 566.000000"
 preserveAspectRatio="xMidYMid meet">
<metadata>
Created by potrace 1.11, written by Peter Selinger 2001-2013
</metadata>
<g transform="translate(0.000000,566.000000) scale(0.100000,-0.100000)"
fill="#000000" stroke="none">
<path d="M680 4622 c-177 -32 -298 -131 -351 -287 -7 -22 -14 -42 -14 -45 -14
-68 -18 -201 -20 -615 -2 -498 -2 -500 -24 -547 -34 -70 -74 -91 -183 -96
l-88 -4 0 -184 c0 -140 3 -184 13 -184 173 -4 218 -21 256 -96 l25 -49 1 -515
c1 -283 5 -540 10 -570 4 -30 17 -80 28 -110 82 -221 274 -311 623 -291 19 1
20 6 20 180 -1 99 -3 182 -6 185 -3 2 -30 6 -60 7 -111 4 -185 44 -206 109 -4
14 -8 268 -9 565 l-1 540 -31 67 c-37 78 -98 130 -177 149 l-49 12 54 21 c82
31 112 53 147 105 55 82 56 93 57 637 l1 502 25 48 c35 68 94 103 185 111 l70
6 -1 181 0 181 -110 1 c-61 0 -144 -6 -185 -14z"/>
<path d="M4679 4623 c-1 -22 -1 -335 0 -345 1 -4 27 -7 59 -6 98 2 173 -47
202 -131 15 -45 17 -103 17 -540 1 -538 3 -556 62 -638 32 -45 98 -88 156
-104 39 -11 41 -16 9 -22 -32 -5 -108 -44 -137 -71 -38 -35 -75 -113 -83 -174
-3 -28 -7 -284 -7 -569 l-2 -518 -24 -32 c-31 -41 -88 -63 -178 -70 l-73 -6
-1 -46 c0 -66 0 -272 0 -301 l1 -26 103 3 c81 2 182 10 217 18 129 28 247 114
297 216 55 111 56 125 59 672 2 280 5 527 7 550 14 122 66 167 199 173 44 2
82 5 86 8 5 3 8 325 3 359 0 4 -34 7 -73 7 -125 1 -187 44 -208 144 -7 34 -12
242 -14 557 -2 277 -6 517 -10 532 -28 116 -67 188 -137 251 -93 84 -193 115
-391 122 -127 4 -138 3 -139 -13z"/>
<path d="M2097 4585 c-14 -13 -5 -33 78 -177 l94 -161 -79 -78 c-93 -91 -171
-208 -227 -339 -39 -91 -86 -257 -98 -347 l-6 -43 976 0 976 0 -7 38 c-54 315
-151 522 -327 694 l-78 76 44 74 c24 40 55 93 69 118 79 138 81 144 48 153
-16 4 -34 -19 -110 -150 -49 -86 -90 -159 -90 -163 0 -4 -30 8 -67 26 -144 72
-280 102 -453 102 -175 0 -327 -31 -435 -88 -95 -51 -81 -59 -185 120 -50 88
-96 160 -100 160 -5 0 -15 -7 -23 -15z m300 -597 c36 -41 38 -75 4 -108 -29
-29 -61 -37 -96 -24 -23 9 -48 62 -41 90 15 60 94 85 133 42z m977 6 c43 -42
44 -87 4 -124 -25 -23 -74 -26 -101 -6 -39 30 -38 103 1 132 24 18 77 17 96
-2z"/>
<path d="M1437 3453 c-68 -28 -67 -13 -67 -660 0 -642 -2 -626 64 -657 47 -22
244 -23 291 0 66 31 65 19 65 653 0 622 0 621 -56 658 -37 24 -242 28 -297 6z"/>
<path d="M3964 3459 c-16 -5 -41 -20 -55 -35 l-24 -26 -3 -589 c-3 -656 -4
-641 63 -673 46 -22 244 -22 290 0 66 31 65 18 65 661 0 621 1 607 -53 647
-24 18 -43 21 -140 22 -62 0 -126 -3 -143 -7z"/>
<path d="M1864 3371 c-2 -2 -4 -352 -4 -778 0 -657 2 -779 15 -809 22 -54 58
-64 235 -64 l150 0 1 -217 c0 -120 0 -253 -1 -295 -2 -148 33 -178 208 -178
109 0 151 8 176 33 34 33 36 56 36 356 l0 301 155 0 155 0 0 -300 c0 -331 2
-345 60 -375 44 -23 261 -21 301 2 55 33 58 51 58 358 1 154 1 288 1 298 0 15
14 17 151 17 174 0 212 11 235 66 12 27 14 173 14 809 0 426 -3 776 -7 776
-22 4 -1935 3 -1939 0z"/>
</g>
</svg>
