<?xml version="1.0" standalone="no"?>
<!DOCTYPE svg PUBLIC "-//W3C//DTD SVG 20010904//EN"
 "http://www.w3.org/TR/2001/REC-SVG-20010904/DTD/svg10.dtd">
<svg version="1.0" xmlns="http://www.w3.org/2000/svg"
 width="320.000000pt" height="320.000000pt" viewBox="0 0 320.000000 320.000000"
 preserveAspectRatio="xMidYMid meet">
<metadata>
Created by potrace 1.11, written by Peter Selinger 2001-2013
</metadata>
<g transform="translate(0.000000,320.000000) scale(0.100000,-0.100000)"
fill="#000000" stroke="none">
<path d="M1511 3162 c-6 -20 -20 -75 -31 -122 -12 -47 -26 -101 -31 -121 -5
-20 -15 -36 -21 -36 -25 0 -96 -12 -142 -24 -26 -6 -48 -10 -50 -8 -2 2 -45
60 -96 129 -51 69 -94 126 -95 128 -1 1 -40 -15 -86 -36 -46 -21 -112 -51
-146 -67 -35 -16 -63 -33 -63 -39 0 -6 18 -76 40 -156 22 -80 40 -146 40 -146
0 -1 -28 -25 -63 -52 -35 -27 -87 -74 -116 -103 l-52 -53 -87 31 c-48 17 -117
42 -154 56 l-68 26 -16 -22 c-8 -12 -47 -73 -86 -136 l-71 -115 45 -40 c24
-23 80 -72 125 -109 l80 -68 -18 -55 c-10 -31 -25 -87 -33 -126 -8 -38 -16
-72 -19 -74 -3 -4 -53 -15 -243 -54 l-51 -11 1 -152 c1 -84 4 -157 8 -162 3
-6 37 -12 75 -13 38 -2 78 -5 88 -7 11 -2 41 -4 67 -4 l47 -1 11 -57 c6 -32
18 -80 26 -107 8 -27 14 -55 14 -61 0 -6 -56 -57 -125 -114 -69 -56 -125 -105
-125 -108 0 -3 17 -36 38 -72 20 -36 48 -87 62 -114 14 -26 33 -57 42 -69 l17
-23 148 49 c81 27 151 49 154 50 3 0 37 -32 76 -71 l70 -73 -34 -87 c-19 -49
-40 -101 -47 -118 -25 -58 -39 -96 -35 -99 4 -3 112 -72 202 -129 31 -21 62
-37 67 -37 5 0 29 21 54 47 24 27 73 79 107 116 l64 68 101 -33 c55 -18 100
-36 101 -41 3 -30 17 -153 18 -157 1 -3 5 -38 9 -77 4 -40 11 -74 15 -74 10
-2 68 -7 186 -14 61 -4 113 -9 116 -11 14 -8 27 25 53 131 50 203 39 182 99
190 28 4 52 7 52 7 0 -1 22 5 49 13 27 8 50 14 51 13 27 -43 191 -258 197
-258 4 0 72 30 151 66 l144 66 -43 151 -43 152 23 20 c12 11 47 40 77 65 30
25 72 63 94 85 22 22 47 38 55 37 8 -2 76 -26 151 -53 74 -27 138 -49 141 -49
4 0 37 49 75 110 111 179 104 156 62 193 -75 66 -163 143 -185 160 -22 17 -22
19 -8 53 21 49 63 211 57 218 -5 5 48 21 102 30 17 3 74 13 128 23 l97 17 0
163 c0 90 -4 163 -9 163 -23 0 -302 49 -311 55 -5 3 -10 16 -10 28 0 12 -7 47
-16 77 -9 30 -18 64 -21 75 -4 17 17 39 103 110 59 50 115 95 123 101 17 13
15 18 -31 99 -13 22 -43 75 -66 118 -24 42 -44 77 -46 77 -1 0 -71 -23 -154
-50 l-152 -51 -67 72 c-38 39 -70 75 -71 80 -2 5 21 73 52 150 31 77 54 144
52 148 -3 5 -65 45 -137 91 l-131 83 -48 -51 c-26 -29 -75 -82 -109 -118 l-62
-66 -101 33 c-81 27 -102 38 -104 54 -1 11 -5 38 -8 60 -3 22 -10 84 -17 138
l-12 97 -36 1 c-20 1 -54 3 -76 4 -22 2 -79 6 -127 9 l-87 6 -10 -38z m413
-592 c119 -56 180 -214 126 -325 -22 -46 -90 -115 -113 -115 -8 0 -22 10 -33
21 -35 40 -102 62 -185 62 l-76 0 2 111 c2 118 23 191 63 223 57 47 145 56
216 23z m328 -156 c75 -48 120 -144 121 -259 0 -76 -52 -135 -145 -165 -27 -8
-38 -17 -38 -32 0 -17 4 -19 33 -13 57 12 130 58 160 101 32 46 44 120 29 177
l-10 37 36 -15 c52 -21 119 -97 136 -153 8 -26 12 -68 10 -94 -3 -40 0 -48 22
-63 58 -37 76 -149 37 -218 -25 -44 -95 -78 -155 -76 -93 5 -157 58 -172 143
-6 31 -24 49 -39 39 -12 -7 -1 -77 18 -113 8 -15 28 -42 45 -58 21 -21 28 -36
24 -49 -14 -37 -58 -86 -91 -100 -34 -14 -149 -20 -161 -9 -3 4 4 23 15 44 33
58 44 109 26 116 -21 8 -30 1 -36 -34 -9 -41 -50 -104 -85 -129 -62 -44 -192
-51 -269 -15 -20 10 -55 36 -78 58 l-42 41 1 292 c1 160 4 294 7 298 13 12
134 6 170 -9 68 -28 116 -103 122 -189 2 -32 -2 -40 -28 -55 -16 -9 -40 -26
-53 -38 -20 -18 -21 -22 -8 -33 12 -10 21 -8 49 13 48 37 112 44 169 18 34
-14 49 -17 57 -9 6 6 11 14 11 18 0 12 -89 49 -120 49 -25 0 -30 4 -30 23 0
13 -7 47 -15 75 l-16 52 64 62 c45 45 67 76 76 106 15 53 16 128 2 165 -14 37
-15 35 17 39 38 5 89 -10 134 -38z m451 -816 c46 -90 32 -206 -31 -262 -17
-15 -20 -26 -15 -65 5 -48 -10 -93 -45 -133 -21 -24 -27 -23 -30 9 -2 32 -41
100 -74 130 -27 25 -110 68 -151 79 -26 6 -28 4 -25 -17 2 -16 12 -25 34 -31
54 -14 127 -70 154 -118 53 -95 21 -253 -66 -329 -35 -31 -90 -63 -130 -75
-22 -7 -22 -6 -7 36 32 93 1 209 -77 285 -30 29 -31 33 -21 69 6 22 11 58 11
82 0 35 -3 42 -20 42 -17 0 -20 -7 -21 -42 -1 -86 -42 -148 -118 -183 -27 -12
-41 -25 -41 -37 0 -10 5 -18 10 -18 23 0 87 33 113 57 l27 27 31 -30 c41 -38
79 -119 79 -170 0 -47 -37 -128 -80 -173 -100 -104 -283 -144 -401 -88 -30 14
-63 34 -74 44 -27 24 -60 79 -73 123 -16 52 -24 160 -12 160 6 0 13 -7 16 -15
3 -8 29 -26 57 -40 40 -19 66 -25 119 -25 48 0 68 -4 68 -13 0 -15 58 -87 70
-87 21 0 18 34 -5 62 -40 48 -50 110 -24 162 14 29 16 43 8 53 -17 20 -25 16
-43 -25 -17 -38 -24 -63 -25 -94 -1 -15 -10 -18 -50 -18 -79 0 -133 30 -180
100 -14 21 -16 58 -16 252 -1 125 0 228 2 228 1 0 14 -11 29 -25 55 -51 112
-70 209 -70 73 0 99 4 136 23 40 19 53 21 106 14 61 -8 71 -8 129 3 48 9 112
60 136 109 l21 44 53 -5 c61 -7 134 11 161 38 28 28 46 19 76 -43z"/>
</g>
</svg>
